<svg xmlns="http://www.w3.org/2000/svg" viewBox="0 0 32 40" x="0px" y="0px"><title>07</title><path d="M24.71,12.29h0l-8-8a1,1,0,0,0-1.41,0l-8,8h0l-4,4a1,1,0,0,0,1.41,1.41L7,15.41V25a3,3,0,0,0,3,3H22a3,3,0,0,0,3-3V15.41l2.29,2.29a1,1,0,0,0,1.41-1.41ZM23,25a1,1,0,0,1-1,1H10a1,1,0,0,1-1-1V13.41l7-7,7,7Z"/><text x="0" y="47" fill="#000000" font-size="5px" font-weight="bold" font-family="'Helvetica Neue', Helvetica, Arial-Unicode, Arial, Sans-serif">Created by AlphaStudio™</text><text x="0" y="52" fill="#000000" font-size="5px" font-weight="bold" font-family="'Helvetica Neue', Helvetica, Arial-Unicode, Arial, Sans-serif"></text></svg>